<?xml version="1.0" encoding="utf-8"?>
<!-- Generator: Adobe Illustrator 27.5.0, SVG Export Plug-In . SVG Version: 6.00 Build 0)  -->
<svg version="1.1" xmlns="http://www.w3.org/2000/svg" xmlns:xlink="http://www.w3.org/1999/xlink" x="0px" y="0px"
	 viewBox="0 0 500 500" style="enable-background:new 0 0 500 500;" xml:space="preserve">
<g id="Background_Simple">
	<g>
		<path style="fill:#92E3A9;" d="M130.631,467.408c0,0-95.048-72.205-117.469-184.84C-9.259,169.933,82.863,147.223,136.895,109.052
			c54.033-38.171,73.92-81.123,152.213-83.76c78.293-2.636,118.794,26.373,147.061,82.583s43.363,113.93,52.248,170.263
			c8.885,56.332,4.517,101.328-45.739,123.772c-50.255,22.445-73.578,12.599-97.45,38.446
			C321.357,466.203,212.403,524.707,130.631,467.408z"/>
		<path style="opacity:0.8;fill:#FFFFFF;" d="M130.631,467.408c0,0-95.048-72.205-117.469-184.84
			C-9.259,169.933,82.863,147.223,136.895,109.052c54.033-38.171,73.92-81.123,152.213-83.76
			c78.293-2.636,118.794,26.373,147.061,82.583s43.363,113.93,52.248,170.263c8.885,56.332,4.517,101.328-45.739,123.772
			c-50.255,22.445-73.578,12.599-97.45,38.446C321.357,466.203,212.403,524.707,130.631,467.408z"/>
	</g>
</g>
<g id="Clouds">
	<path style="fill:none;stroke:#B2B2B2;stroke-miterlimit:10;" d="M448.008,45.025c0,0-3.382-16.91-19.37-17.525
		c-18.006-0.693-20.841,10.755-26.404,14.463c-5.562,3.708-14.833-4.944-22.868-3.708c-8.035,1.236-8.035,10.507-12.361,12.979
		c-4.326,2.472-9.889-3.708-16.687-1.854c-6.799,1.854-7.417,4.944-11.743,6.799c-4.326,1.854-11.743-2.472-15.451,0
		c-3.708,2.472-7.417,5.562-7.417,5.562h173.054c0,0-7.829-11.274-14.215-17.305C463.422,33.928,453.57,52.441,448.008,45.025z"/>
	<path style="fill:none;stroke:#B2B2B2;stroke-miterlimit:10;" d="M159.679,74.576c0,0-2.366-11.831-13.552-12.261
		c-12.597-0.485-14.581,7.524-18.473,10.119c-3.892,2.594-10.378-3.459-15.999-2.595c-5.621,0.865-5.621,7.351-8.648,9.081
		c-3.027,1.73-6.918-2.594-11.675-1.297c-4.757,1.297-5.189,3.459-8.216,4.756c-3.027,1.297-8.216-1.73-10.81,0
		c-2.595,1.73-5.189,3.892-5.189,3.892h121.074c0,0-5.477-7.888-9.945-12.107C170.463,66.812,163.571,79.765,159.679,74.576z"/>
</g>
<g id="Trees">
	<g>
		<path style="fill:#92E3A9;" d="M144.216,250.383c0,50.489-29.868,91.418-66.711,91.418c-36.843,0-66.711-40.929-66.711-91.418
			c0-50.489,29.867-224.016,66.711-224.016C114.349,26.367,144.216,199.894,144.216,250.383z"/>
		<path style="opacity:0.57;fill:#FFFFFF;" d="M144.216,250.383c0,50.489-29.868,91.418-66.711,91.418
			c-36.843,0-66.711-40.929-66.711-91.418c0-50.489,29.867-224.016,66.711-224.016C114.349,26.367,144.216,199.894,144.216,250.383z
			"/>
		<polygon style="fill:#9C9C9C;" points="114.911,276.797 94.711,284.269 98.764,272.109 89.107,286.341 79.465,289.908 
			78.777,249.978 113.869,203.355 95.062,222.162 98.243,209.085 89.247,227.978 78.581,238.643 77.506,176.26 73.683,267.244 
			40.428,232.003 58.695,256.835 41.469,254.921 62.747,262.343 73.287,276.671 71.444,320.539 59.178,312.216 71.062,329.617 
			65.429,458.849 82.461,458.849 79.575,296.277 		"/>
		<g>
			<path style="fill:#FFFFFF;" d="M114.206,176.457c0,0,0.617,6.129-2.733,10.628c-3.35,4.499-9.399,5.665-9.399,5.665
				s-0.617-6.129,2.733-10.628C108.157,177.623,114.206,176.457,114.206,176.457z"/>
			<path style="fill:#FFFFFF;" d="M134.312,204.707c0,0,0.617,6.129-2.733,10.628c-3.35,4.499-9.398,5.665-9.398,5.665
				s-0.617-6.129,2.733-10.628C128.263,205.873,134.312,204.707,134.312,204.707z"/>
			<path style="fill:#FFFFFF;" d="M134.304,259.709c0,0-1.482,5.979-6.151,9.088c-4.669,3.109-10.757,2.171-10.757,2.171
				s1.482-5.979,6.151-9.088C128.216,258.771,134.304,259.709,134.304,259.709z"/>
			<path style="fill:#FFFFFF;" d="M23.88,259.709c0,0,1.482,5.979,6.151,9.088c4.669,3.109,10.757,2.171,10.757,2.171
				s-1.481-5.979-6.151-9.088C29.968,258.771,23.88,259.709,23.88,259.709z"/>
			<path style="fill:#FFFFFF;" d="M111.081,236.877c0,0,0.617,6.129-2.733,10.628c-3.35,4.5-9.399,5.665-9.399,5.665
				s-0.617-6.129,2.733-10.628C105.032,238.044,111.081,236.877,111.081,236.877z"/>
			<path style="fill:#FFFFFF;" d="M105.872,145.726c0,0,0.617,6.129-2.733,10.628c-3.35,4.499-9.398,5.665-9.398,5.665
				s-0.617-6.129,2.733-10.628C99.823,146.892,105.872,145.726,105.872,145.726z"/>
			<path style="fill:#FFFFFF;" d="M93.892,169.165c0,0,0.617,6.129-2.733,10.628c-3.35,4.499-9.398,5.665-9.398,5.665
				s-0.617-6.129,2.733-10.628C87.843,170.331,93.892,169.165,93.892,169.165z"/>
			<path style="fill:#FFFFFF;" d="M122.332,152.099c0,0,0.617,6.129-2.733,10.628c-3.35,4.499-9.398,5.665-9.398,5.665
				s-0.617-6.129,2.733-10.628C116.284,153.265,122.332,152.099,122.332,152.099z"/>
			<path style="fill:#FFFFFF;" d="M29.915,152.099c0,0-0.617,6.129,2.733,10.628c3.35,4.499,9.399,5.665,9.399,5.665
				s0.617-6.129-2.733-10.628C35.964,153.265,29.915,152.099,29.915,152.099z"/>
			<path style="fill:#FFFFFF;" d="M108.476,117.078c0,0,0.617,6.129-2.733,10.628c-3.35,4.499-9.399,5.665-9.399,5.665
				s-0.617-6.129,2.733-10.628C102.428,118.244,108.476,117.078,108.476,117.078z"/>
			<path style="fill:#FFFFFF;" d="M102.589,86.647c0,0,2.137,5.777,0.025,10.974c-2.112,5.196-7.674,7.844-7.674,7.844
				s-2.137-5.777-0.025-10.974C97.028,89.295,102.589,86.647,102.589,86.647z"/>
			<path style="fill:#FFFFFF;" d="M60.403,78.695c0,0,5.457,2.858,7.369,8.131c1.912,5.274-0.443,10.965-0.443,10.965
				s-5.457-2.858-7.369-8.132C58.047,84.387,60.403,78.695,60.403,78.695z"/>
			<path style="fill:#FFFFFF;" d="M80.075,115.085c0,0,3.887,4.778,3.565,10.379c-0.322,5.6-4.732,9.902-4.732,9.902
				s-3.887-4.778-3.565-10.379C75.666,119.386,80.075,115.085,80.075,115.085z"/>
			<path style="fill:#FFFFFF;" d="M79.034,60.914c0,0,3.887,4.779,3.565,10.379c-0.322,5.601-4.731,9.902-4.731,9.902
				s-3.887-4.779-3.565-10.379C74.624,65.216,79.034,60.914,79.034,60.914z"/>
			<path style="fill:#FFFFFF;" d="M34.883,176.457c0,0-0.617,6.129,2.733,10.628c3.35,4.499,9.399,5.665,9.399,5.665
				s0.617-6.129-2.733-10.628C40.931,177.623,34.883,176.457,34.883,176.457z"/>
			<path style="fill:#FFFFFF;" d="M23.423,209.792c0,0-0.617,6.129,2.733,10.628c3.35,4.499,9.399,5.665,9.399,5.665
				s0.617-6.129-2.733-10.628C29.472,210.958,23.423,209.792,23.423,209.792z"/>
			<path style="fill:#FFFFFF;" d="M53.841,221.895c0,0-0.617,6.129,2.733,10.628c3.35,4.499,9.399,5.665,9.399,5.665
				s0.617-6.129-2.733-10.628C59.89,223.061,53.841,221.895,53.841,221.895z"/>
			<path style="fill:#FFFFFF;" d="M62.158,175.705c0,0-2.347,5.695-0.425,10.965c1.921,5.27,7.383,8.119,7.383,8.119
				s2.346-5.695,0.424-10.966C67.619,178.554,62.158,175.705,62.158,175.705z"/>
			<path style="fill:#FFFFFF;" d="M40.618,298.616c0,0,6.159,0.112,10.369-3.595c4.209-3.707,4.876-9.831,4.876-9.831
				s-6.159-0.112-10.368,3.595C41.285,292.492,40.618,298.616,40.618,298.616z"/>
			<path style="fill:#FFFFFF;" d="M99.717,291.879c0,0,1.673,5.928,6.44,8.886c4.766,2.958,10.821,1.825,10.821,1.825
				s-1.673-5.928-6.44-8.886C105.772,290.746,99.717,291.879,99.717,291.879z"/>
			<path style="fill:#FFFFFF;" d="M47.489,145.726c0,0-0.617,6.129,2.733,10.628c3.35,4.499,9.399,5.665,9.399,5.665
				s0.617-6.129-2.733-10.628C53.537,146.892,47.489,145.726,47.489,145.726z"/>
			<path style="fill:#FFFFFF;" d="M47.383,118.641c0,0-0.617,6.129,2.733,10.628c3.35,4.499,9.399,5.665,9.399,5.665
				s0.617-6.129-2.733-10.628C53.431,119.807,47.383,118.641,47.383,118.641z"/>
		</g>
	</g>
	<g>
		<path style="fill:#92E3A9;" d="M488.471,250.383c0,50.489-29.868,91.418-66.711,91.418c-36.843,0-66.711-40.929-66.711-91.418
			c0-50.489,29.867-224.016,66.711-224.016C458.603,26.367,488.471,199.894,488.471,250.383z"/>
		<path style="opacity:0.57;fill:#FFFFFF;" d="M488.471,250.383c0,50.489-29.868,91.418-66.711,91.418
			c-36.843,0-66.711-40.929-66.711-91.418c0-50.489,29.867-224.016,66.711-224.016C458.603,26.367,488.471,199.894,488.471,250.383z
			"/>
		<polygon style="fill:#9C9C9C;" points="459.165,276.797 438.965,284.269 443.019,272.109 433.362,286.341 423.72,289.908 
			423.031,249.978 458.124,203.355 439.316,222.162 442.498,209.085 433.501,227.978 422.836,238.643 421.76,176.26 
			417.937,267.244 384.682,232.003 402.949,256.835 385.723,254.921 407.001,262.343 417.541,276.671 415.698,320.539 
			403.432,312.216 415.316,329.617 409.683,458.849 426.715,458.849 423.829,296.277 		"/>
		<g>
			<path style="fill:#FFFFFF;" d="M458.46,176.457c0,0,0.617,6.129-2.733,10.628c-3.35,4.499-9.399,5.665-9.399,5.665
				s-0.617-6.129,2.733-10.628C452.412,177.623,458.46,176.457,458.46,176.457z"/>
			<path style="fill:#FFFFFF;" d="M478.566,204.707c0,0,0.617,6.129-2.733,10.628c-3.35,4.499-9.399,5.665-9.399,5.665
				s-0.617-6.129,2.733-10.628C472.518,205.873,478.566,204.707,478.566,204.707z"/>
			<path style="fill:#FFFFFF;" d="M478.558,259.709c0,0-1.482,5.979-6.151,9.088c-4.669,3.109-10.757,2.171-10.757,2.171
				s1.482-5.979,6.151-9.088C472.47,258.771,478.558,259.709,478.558,259.709z"/>
			<path style="fill:#FFFFFF;" d="M368.134,259.709c0,0,1.482,5.979,6.151,9.088c4.669,3.109,10.757,2.171,10.757,2.171
				s-1.482-5.979-6.151-9.088C374.222,258.771,368.134,259.709,368.134,259.709z"/>
			<path style="fill:#FFFFFF;" d="M455.335,236.877c0,0,0.617,6.129-2.733,10.628c-3.35,4.5-9.399,5.665-9.399,5.665
				s-0.617-6.129,2.733-10.628C449.286,238.044,455.335,236.877,455.335,236.877z"/>
			<path style="fill:#FFFFFF;" d="M450.126,145.726c0,0,0.617,6.129-2.733,10.628c-3.35,4.499-9.399,5.665-9.399,5.665
				s-0.617-6.129,2.733-10.628C444.078,146.892,450.126,145.726,450.126,145.726z"/>
			<path style="fill:#FFFFFF;" d="M438.146,169.165c0,0,0.617,6.129-2.733,10.628c-3.35,4.499-9.398,5.665-9.398,5.665
				s-0.617-6.129,2.733-10.628C432.098,170.331,438.146,169.165,438.146,169.165z"/>
			<path style="fill:#FFFFFF;" d="M466.586,152.099c0,0,0.617,6.129-2.733,10.628c-3.35,4.499-9.398,5.665-9.398,5.665
				s-0.617-6.129,2.733-10.628C460.538,153.265,466.586,152.099,466.586,152.099z"/>
			<path style="fill:#FFFFFF;" d="M374.169,152.099c0,0-0.617,6.129,2.733,10.628c3.35,4.499,9.399,5.665,9.399,5.665
				s0.617-6.129-2.733-10.628C380.218,153.265,374.169,152.099,374.169,152.099z"/>
			<path style="fill:#FFFFFF;" d="M452.73,117.078c0,0,0.617,6.129-2.733,10.628c-3.35,4.499-9.399,5.665-9.399,5.665
				s-0.617-6.129,2.733-10.628C446.682,118.244,452.73,117.078,452.73,117.078z"/>
			<path style="fill:#FFFFFF;" d="M446.843,86.647c0,0,2.137,5.777,0.025,10.974c-2.112,5.196-7.674,7.844-7.674,7.844
				s-2.137-5.777-0.025-10.974C441.282,89.295,446.843,86.647,446.843,86.647z"/>
			<path style="fill:#FFFFFF;" d="M404.658,78.695c0,0,5.457,2.858,7.369,8.131c1.912,5.274-0.443,10.965-0.443,10.965
				s-5.457-2.858-7.37-8.132C402.301,84.387,404.658,78.695,404.658,78.695z"/>
			<path style="fill:#FFFFFF;" d="M424.329,115.085c0,0,3.887,4.778,3.565,10.379c-0.322,5.6-4.732,9.902-4.732,9.902
				s-3.887-4.778-3.565-10.379C419.92,119.386,424.329,115.085,424.329,115.085z"/>
			<path style="fill:#FFFFFF;" d="M423.288,60.914c0,0,3.887,4.779,3.565,10.379c-0.322,5.601-4.731,9.902-4.731,9.902
				s-3.887-4.779-3.565-10.379C418.878,65.216,423.288,60.914,423.288,60.914z"/>
			<path style="fill:#FFFFFF;" d="M379.137,176.457c0,0-0.617,6.129,2.733,10.628c3.35,4.499,9.399,5.665,9.399,5.665
				s0.617-6.129-2.733-10.628C385.185,177.623,379.137,176.457,379.137,176.457z"/>
			<path style="fill:#FFFFFF;" d="M367.677,209.792c0,0-0.617,6.129,2.733,10.628c3.35,4.499,9.399,5.665,9.399,5.665
				s0.617-6.129-2.733-10.628C373.726,210.958,367.677,209.792,367.677,209.792z"/>
			<path style="fill:#FFFFFF;" d="M398.095,221.895c0,0-0.617,6.129,2.733,10.628c3.35,4.499,9.399,5.665,9.399,5.665
				s0.617-6.129-2.733-10.628C404.144,223.061,398.095,221.895,398.095,221.895z"/>
			<path style="fill:#FFFFFF;" d="M406.412,175.705c0,0-2.346,5.695-0.425,10.965c1.921,5.27,7.383,8.119,7.383,8.119
				s2.346-5.695,0.424-10.966C411.873,178.554,406.412,175.705,406.412,175.705z"/>
			<path style="fill:#FFFFFF;" d="M384.872,298.616c0,0,6.159,0.112,10.369-3.595c4.209-3.707,4.876-9.831,4.876-9.831
				s-6.159-0.112-10.368,3.595C385.539,292.492,384.872,298.616,384.872,298.616z"/>
			<path style="fill:#FFFFFF;" d="M443.971,291.879c0,0,1.673,5.928,6.44,8.886c4.766,2.958,10.821,1.825,10.821,1.825
				s-1.673-5.928-6.44-8.886C450.026,290.746,443.971,291.879,443.971,291.879z"/>
			<path style="fill:#FFFFFF;" d="M391.743,145.726c0,0-0.617,6.129,2.733,10.628c3.35,4.499,9.399,5.665,9.399,5.665
				s0.617-6.129-2.733-10.628C397.792,146.892,391.743,145.726,391.743,145.726z"/>
			<path style="fill:#FFFFFF;" d="M391.637,118.641c0,0-0.617,6.129,2.733,10.628c3.35,4.499,9.399,5.665,9.399,5.665
				s0.617-6.129-2.733-10.628C397.686,119.807,391.637,118.641,391.637,118.641z"/>
		</g>
	</g>
	<g>
		<path style="fill:#92E3A9;" d="M327.774,314.72c0,34.907-20.65,63.204-46.122,63.204c-25.472,0-46.122-28.297-46.122-63.204
			c0-34.907,20.65-154.879,46.122-154.879C307.124,159.841,327.774,279.814,327.774,314.72z"/>
		<path style="opacity:0.57;fill:#FFFFFF;" d="M327.774,314.72c0,34.907-20.65,63.204-46.122,63.204
			c-25.472,0-46.122-28.297-46.122-63.204c0-34.907,20.65-154.879,46.122-154.879C307.124,159.841,327.774,279.814,327.774,314.72z"
			/>
		<polygon style="fill:#9C9C9C;" points="307.513,332.983 293.547,338.148 296.35,329.742 289.673,339.581 283.007,342.047 
			282.531,314.441 306.793,282.207 293.79,295.209 295.99,286.168 289.769,299.23 282.396,306.604 281.652,263.474 279.009,326.378 
			256.017,302.013 268.646,319.181 256.737,317.858 271.448,322.99 278.735,332.896 277.461,363.225 268.981,357.471 
			277.197,369.501 273.302,458.849 285.078,458.849 283.083,346.451 		"/>
		<g>
			<path style="fill:#FFFFFF;" d="M307.025,263.61c0,0,0.427,4.238-1.889,7.348c-2.316,3.111-6.498,3.917-6.498,3.917
				s-0.427-4.237,1.89-7.348C302.844,264.416,307.025,263.61,307.025,263.61z"/>
			<path style="fill:#FFFFFF;" d="M320.926,283.141c0,0,0.427,4.237-1.889,7.348c-2.316,3.111-6.498,3.917-6.498,3.917
				s-0.427-4.237,1.889-7.348C316.745,283.948,320.926,283.141,320.926,283.141z"/>
			<path style="fill:#FFFFFF;" d="M320.921,321.168c0,0-1.025,4.134-4.253,6.283c-3.228,2.15-7.437,1.501-7.437,1.501
				s1.025-4.134,4.253-6.283C316.711,320.52,320.921,321.168,320.921,321.168z"/>
			<path style="fill:#FFFFFF;" d="M244.576,321.168c0,0,1.025,4.134,4.253,6.283c3.228,2.15,7.437,1.501,7.437,1.501
				s-1.024-4.134-4.253-6.283C248.785,320.52,244.576,321.168,244.576,321.168z"/>
			<path style="fill:#FFFFFF;" d="M304.865,305.383c0,0,0.426,4.238-1.89,7.348c-2.316,3.111-6.498,3.917-6.498,3.917
				s-0.426-4.237,1.889-7.348C300.683,306.189,304.865,305.383,304.865,305.383z"/>
			<path style="fill:#FFFFFF;" d="M301.264,242.363c0,0,0.427,4.237-1.89,7.348c-2.316,3.111-6.498,3.917-6.498,3.917
				s-0.427-4.237,1.889-7.348C297.082,243.169,301.264,242.363,301.264,242.363z"/>
			<path style="fill:#FFFFFF;" d="M292.981,258.569c0,0,0.427,4.237-1.89,7.348c-2.316,3.111-6.498,3.917-6.498,3.917
				s-0.427-4.238,1.889-7.348C288.799,259.374,292.981,258.569,292.981,258.569z"/>
			<path style="fill:#FFFFFF;" d="M312.644,246.77c0,0,0.427,4.238-1.89,7.348c-2.316,3.111-6.498,3.917-6.498,3.917
				s-0.427-4.237,1.89-7.348C308.462,247.576,312.644,246.77,312.644,246.77z"/>
			<path style="fill:#FFFFFF;" d="M248.749,246.77c0,0-0.427,4.238,1.89,7.348c2.316,3.111,6.498,3.917,6.498,3.917
				s0.426-4.237-1.89-7.348C252.931,247.576,248.749,246.77,248.749,246.77z"/>
			<path style="fill:#FFFFFF;" d="M303.064,222.557c0,0,0.427,4.238-1.89,7.348c-2.316,3.111-6.498,3.917-6.498,3.917
				s-0.426-4.237,1.89-7.348C298.882,223.363,303.064,222.557,303.064,222.557z"/>
			<path style="fill:#FFFFFF;" d="M298.994,201.518c0,0,1.477,3.994,0.017,7.587c-1.46,3.593-5.306,5.423-5.306,5.423
				s-1.477-3.994-0.017-7.587C295.149,203.348,298.994,201.518,298.994,201.518z"/>
			<path style="fill:#FFFFFF;" d="M269.828,196.02c0,0,3.773,1.976,5.095,5.622c1.322,3.646-0.306,7.581-0.306,7.581
				s-3.773-1.976-5.095-5.622C268.199,199.955,269.828,196.02,269.828,196.02z"/>
			<path style="fill:#FFFFFF;" d="M283.428,221.179c0,0,2.688,3.304,2.465,7.175c-0.223,3.872-3.271,6.846-3.271,6.846
				s-2.688-3.304-2.465-7.176C280.38,224.152,283.428,221.179,283.428,221.179z"/>
			<path style="fill:#FFFFFF;" d="M282.709,183.727c0,0,2.687,3.304,2.465,7.175c-0.223,3.872-3.271,6.846-3.271,6.846
				s-2.688-3.304-2.465-7.176C279.66,186.701,282.709,183.727,282.709,183.727z"/>
			<path style="fill:#FFFFFF;" d="M252.183,263.61c0,0-0.426,4.238,1.889,7.348c2.316,3.111,6.498,3.917,6.498,3.917
				s0.426-4.237-1.89-7.348C256.365,264.416,252.183,263.61,252.183,263.61z"/>
			<path style="fill:#FFFFFF;" d="M244.26,286.657c0,0-0.426,4.237,1.89,7.348c2.316,3.111,6.498,3.917,6.498,3.917
				s0.426-4.237-1.89-7.348C248.442,287.463,244.26,286.657,244.26,286.657z"/>
			<path style="fill:#FFFFFF;" d="M265.291,295.025c0,0-0.427,4.237,1.89,7.348c2.316,3.111,6.498,3.917,6.498,3.917
				s0.426-4.238-1.89-7.348C269.473,295.831,265.291,295.025,265.291,295.025z"/>
			<path style="fill:#FFFFFF;" d="M271.041,263.09c0,0-1.622,3.938-0.294,7.581c1.328,3.644,5.104,5.613,5.104,5.613
				s1.622-3.938,0.294-7.581C274.816,265.06,271.041,263.09,271.041,263.09z"/>
			<path style="fill:#FFFFFF;" d="M256.149,348.068c0,0,4.258,0.078,7.169-2.486c2.91-2.563,3.371-6.797,3.371-6.797
				s-4.258-0.078-7.168,2.486C256.609,343.834,256.149,348.068,256.149,348.068z"/>
			<path style="fill:#FFFFFF;" d="M297.008,343.41c0,0,1.157,4.099,4.452,6.144c3.295,2.045,7.481,1.261,7.481,1.261
				s-1.157-4.099-4.452-6.144C301.194,342.627,297.008,343.41,297.008,343.41z"/>
			<path style="fill:#FFFFFF;" d="M260.899,242.363c0,0-0.427,4.237,1.89,7.348c2.316,3.111,6.498,3.917,6.498,3.917
				s0.426-4.237-1.89-7.348C265.081,243.169,260.899,242.363,260.899,242.363z"/>
			<path style="fill:#FFFFFF;" d="M260.826,223.637c0,0-0.426,4.237,1.89,7.348c2.316,3.111,6.498,3.917,6.498,3.917
				s0.426-4.237-1.889-7.348C265.008,224.443,260.826,223.637,260.826,223.637z"/>
		</g>
	</g>
</g>
<g id="Character_2">
	<g>
		<g>
			<path style="fill:#92E3A9;stroke:#263238;stroke-miterlimit:10;" d="M320.877,241.221c0,0-4.705-0.04-5.616,5.197
				c-0.911,5.237-2.277,11.384-2.277,11.384l-34.38,29.371c0,0-10.018,0.228-11.612,3.871c-1.594,3.643-1.821,5.464-1.821,5.464
				s-1.366-0.228-2.96,4.098c-1.594,4.326-1.821,6.603-1.821,6.603s47.129,6.375,48.723,7.058c1.594,0.683,4.326,0.683,5.464-1.366
				s4.326-28.004,6.83-36.884c2.505-8.88,5.692-17.987,4.098-23.679C323.913,246.645,320.877,241.221,320.877,241.221z"/>
			<g>
				<path style="fill:none;stroke:#263238;stroke-miterlimit:10;" d="M297.558,296.067c1.173,1.068,2.309,2.272,3.359,3.627"/>
				<path style="fill:none;stroke:#263238;stroke-miterlimit:10;" d="M282.93,288.31c0,0,5.796,1.207,11.672,5.381"/>
				<path style="fill:none;stroke:#263238;stroke-miterlimit:10;" d="M269.953,293.091c0,0,11.156-2.049,19.58,1.821"/>
			</g>
		</g>
		<path style="fill:#263238;stroke:#263238;stroke-miterlimit:10;" d="M435.971,458.849l-4.373-61.991c0,0-53.72,4.659-75.098,2.741
			c-21.378-1.919-36.727-9.867-36.727-9.867s-1.096,8.223-2.467,18.912c-1.196,9.327-1.557,42.023-1.629,50.206H435.971z"/>
		<path style="fill:#C2C2C2;stroke:#263238;stroke-miterlimit:10;" d="M333.477,398.228c0,0,9.305,9.527,33.541,9.527
			c17.817,0,24.839-2.127,24.839-2.127l0.6-8.048c0,0-28.008,0.648-41.438-3.737c-13.43-4.385-17.267-4.659-17.267-4.659
			L333.477,398.228z"/>
		<path style="fill:#C2C2C2;stroke:#263238;stroke-miterlimit:10;" d="M365.498,228.764l-7.437,5.764
			c0,0-9.296,38.114-11.527,51.872c-2.231,13.758-9.11,41.646-9.11,63.957c0,22.31-1.859,42.39-1.859,42.39
			s18.406,6.693,36.255,6.507c17.848-0.186,20.637-1.673,20.637-1.673s2.975-66.002,6.135-81.991s7.809-67.675,9.668-77.715
			s-0.93-9.854-0.93-9.854l-6.135-2.975L365.498,228.764z"/>
		<path style="fill:#FFFFFF;stroke:#263238;stroke-miterlimit:10;" d="M364.201,222.973c0,0,0.514,6.428,0.514,9.514
			c0,3.085,1.543,13.885,3.6,20.57c2.057,6.685,5.657,9.256,7.971,7.971c2.314-1.286,13.116-7.735,26.741-33.683
			c3.33-6.342,1.543-32.912,1.543-32.912s-4.628,9.514-8.228,13.37s-31.883,8.228-31.883,8.228L364.201,222.973z"/>
		<g>
			<path style="fill:#FFFFFF;stroke:#263238;stroke-miterlimit:10;" d="M353.817,150.355c0,0-0.083,0.428-0.219,1.15
				c-0.635,3.368-2.433,13.13-2.433,15.586c0,2.983,0.663,3.48,0.497,8.12c-0.166,4.64-1.491,8.617-0.829,11.931
				c0.663,3.314,1.326,6.794,1.657,10.439c0.331,3.646,0.331,5.965,0.331,5.965s1.823,0.497,1.823,4.971
				c0,4.474-0.663,9.777,3.314,11.931c3.977,2.154,22.039,2.983,32.644-1.657c10.605-4.64,10.771-9.114,11.434-12.428
				c0.663-3.314,1.16-8.12,1.16-8.12s8.617-2.983,10.274-4.971s6.463-8.617,3.811-13.091c-2.651-4.474-5.303-2.983-5.303-2.983
				l-4.806-1.988l3.646-14.251c0,0-20.382-1.491-25.685-5.965c-5.303-4.474-6.462-11.268-16.571-11.434
				C358.456,143.395,353.817,150.355,353.817,150.355z"/>
			<path style="fill:#263238;stroke:#263238;stroke-miterlimit:10;" d="M364.753,152.177c0,0-2.154-3.811-4.971-3.811
				c-2.817,0-7.125,5.468-8.285,6.463c-1.16,0.994-3.811-0.994-2.817-5.634c0.994-4.64,1.657-5.468,1.657-5.468
				s-5.634,2.817-6.297,1.326c-0.663-1.491,4.806-10.44,12.428-14.914c7.622-4.474,18.559-1.988,18.559-1.988
				s14.085-4.806,24.69,1.823c10.605,6.628,20.216,26.016,18.559,31.816c-1.657,5.8-4.805,11.765-5.303,12.594
				c-0.497,0.829-0.994,2.817-0.994,2.817s-6.628,3.314-6.96,4.971c-0.331,1.657,0,24.359-0.497,28.336
				c-0.497,3.977-3.148,7.291-7.291,8.948c-4.143,1.657-22.536,7.457-30.987,6.628c-8.451-0.829-13.257-6.297-13.422-10.605
				c-0.166-4.308,0.331-4.971,0.331-7.622c0-2.651-1.988-3.811,0.166-5.965c2.154-2.154,13.422-6.131,22.702-3.811
				s18.393,6.297,19.388,5.8c0.994-0.497,4.806-5.965,5.634-12.428c0.828-6.463,0.331-10.605,0.331-11.268
				c0-0.663-2.32-4.805-4.308-8.285c-1.988-3.48-1.16-7.788-1.16-7.788s-9.942-2.154-14.085-6.462
				c-4.143-4.308-5.303-8.451-9.28-8.783C368.565,148.532,364.753,152.177,364.753,152.177z"/>
			<path style="fill:#FFFFFF;stroke:#263238;stroke-miterlimit:10;" d="M364.09,178.856c0,0-3.811,16.736-2.817,18.559
				c0.994,1.823,8.285,2.817,9.777,2.32c1.491-0.497,3.645-3.977,3.645-3.977"/>
			<path style="fill:none;stroke:#B0B0B0;stroke-miterlimit:10;" d="M362.599,205.369c-0.62,0.236,4.259,2.059,12.097,0.331
				c5.401-1.191,6.96-2.486,6.96-2.486"/>
			<path style="fill:#263238;stroke:#263238;stroke-miterlimit:10;" d="M388.615,168.085c0,0-5.468-3.48-8.451-4.474
				c-2.983-0.994-9.445-1.326-9.777,0.166c-0.331,1.491,0.331,2.651,2.817,2.651c2.486,0,10.439,1.657,12.097,1.988
				C386.958,168.748,389.775,170.902,388.615,168.085z"/>
			<path style="fill:#263238;stroke:#263238;stroke-miterlimit:10;" d="M363.262,169.411c0,0-0.497-2.154-2.154-2.651
				c-1.657-0.497-8.12,0.663-8.617,1.988c-0.497,1.326,4.971,1.326,7.457,1.326C362.433,170.074,363.262,170.571,363.262,169.411z"
				/>
			<path style="fill:#263238;" d="M379.501,180.265c0,1.876-0.964,3.397-2.154,3.397c-1.19,0-2.154-1.521-2.154-3.397
				c0-1.876,0.965-3.397,2.154-3.397C378.537,176.868,379.501,178.389,379.501,180.265z"/>
			<ellipse style="fill:#263238;" cx="356.08" cy="179.774" rx="2.045" ry="3.225"/>
			<path style="fill:none;stroke:#263238;stroke-miterlimit:10;" d="M364.919,173.885c0,0-1.326-1.326-3.977-1.823
				c-2.651-0.497-11.931-0.829-13.257,0.497c-1.326,1.326-0.331,7.291,0.994,9.777c1.326,2.486,5.468,3.314,8.782,2.817
				c3.314-0.497,4.308-1.491,5.137-2.651C363.428,181.342,364.919,175.873,364.919,173.885z"/>
			<path style="fill:none;stroke:#263238;stroke-miterlimit:10;" d="M369.784,173.633c0,0,1.648-1.245,4.799-1.544
				c3.151-0.299,14.084,0.086,15.553,1.537c1.47,1.452-0.101,7.442-1.827,9.867c-1.726,2.425-6.653,2.945-10.516,2.182
				c-3.863-0.764-4.965-1.852-5.861-3.097C371.036,181.334,369.65,175.656,369.784,173.633z"/>
			<path style="fill:none;stroke:#263238;stroke-miterlimit:10;" d="M364.919,173.885c0,0,2.439-2.492,4.865-0.252"/>
			<line style="fill:none;stroke:#263238;stroke-miterlimit:10;" x1="390.935" y1="174.879" x2="411.98" y2="177.199"/>
		</g>
		<path style="fill:#92E3A9;stroke:#263238;stroke-miterlimit:10;" d="M335.193,428.815c0,0,0.372,7.437-1.115,7.995
			c-1.487,0.558-14.316-3.347-21.195-6.693c-6.879-3.347-9.296-3.533-8.924-5.764c0.372-2.231,1.673-6.879,1.673-6.879
			L335.193,428.815z"/>
		<g>
			<path style="fill:#92E3A9;stroke:#263238;stroke-miterlimit:10;" d="M364.754,230.065c0,0-7.623,37.742-10.226,49.083
				c-2.603,11.341-12.828,55.59-13.386,72.323c-0.558,16.733-2.417,68.047-2.975,74.554c-0.558,6.507-2.789,4.834-3.719,4.462
				c-0.93-0.372-28.632-9.482-29.747-10.783c-1.116-1.301,0.186-13.015,0.186-13.015l7.809-52.987l0.744-25.099
				c0,0,0.186-29.933,3.718-46.852c3.532-16.919,2.58-14.655,3.134-22.416c0.693-9.699-2.019-16.999,0.584-18.115
				c2.603-1.116,30.863-6.135,33.466-7.065C356.946,233.226,363.081,226.719,364.754,230.065z"/>
			<path style="fill:none;stroke:#263238;stroke-miterlimit:10;" d="M340.248,290.22c-7.581,1.895-17.688-0.632-17.688-0.632
				s-2.843,1.263-2.843,2.211c0,0.948,0,5.686,0,7.265c0,1.579,1.264,0.632,4.106,2.843"/>
		</g>
		<path style="fill:#92E3A9;stroke:#263238;stroke-miterlimit:10;" d="M386.571,431.958c0,0-2.312,9.072-0.534,10.139
			c1.779,1.067,21.168,2.668,33.976,1.245c12.807-1.423,26.326-7.471,27.216-9.25c0.889-1.779-0.534-8.538-0.534-8.538
			s-13.519,4.803-28.283,6.937C403.648,434.626,386.571,431.958,386.571,431.958z"/>
		<g>
			<path style="fill:#92E3A9;stroke:#263238;stroke-miterlimit:10;" d="M403.854,225.473c0,0-5.554,32.493-9.72,63.319
				s-8.054,96.645-8.054,96.645s-1.944,47.212-1.389,48.045c0.555,0.833,23.606,4.721,38.88,1.944
				c15.274-2.777,23.328-6.665,24.717-9.998c1.389-3.333-4.166-76.094-4.166-76.094s9.998-99.422,8.332-101.921
				c-1.666-2.499-7.776-3.888-19.996-8.609C420.239,234.082,404.681,223.601,403.854,225.473z"/>
			<path style="fill:none;stroke:#263238;stroke-miterlimit:10;" d="M418.66,295.748c-4.975,0.237-10.818,0.474-14.293,0.474
				c-6.949,0-6.001,0-6.001,2.211s-0.948,9.792,0.632,10.108c1.579,0.316,12.319,3.79,14.846,5.054c2.527,1.263,6.949,0,8.212-0.632
				c1.263-0.632,8.212-4.422,8.212-4.422"/>
			<path style="fill:none;stroke:#263238;stroke-miterlimit:10;" d="M427.741,295.274c0,0-1.288,0.074-3.294,0.181"/>
			<circle style="fill:none;stroke:#263238;stroke-miterlimit:10;" cx="417.002" cy="310.119" r="1.579"/>
		</g>
		<path style="fill:#92E3A9;stroke:#263238;stroke-miterlimit:10;" d="M355.727,233.628c0,0-1.329,6.455-2.848,9.682
			s-8.923,10.252-11.201,14.998c-2.278,4.746-0.19,4.936,2.278,4.556c2.468-0.38,9.303-6.455,11.011-6.455
			c1.709,0,4.177,0.569,4.177,0.569l5.57-24.492c0,0,0.996-4.306-2.609-3.259C360.095,229.812,356.675,232.388,355.727,233.628z"/>
		<path style="fill:#92E3A9;stroke:#263238;stroke-miterlimit:10;" d="M403.854,225.473c0,0-6.159,37.411-5.591,37.638
			c0.569,0.227,6.367-2.501,7.163-2.501s11.939,6.367,13.076,6.367s2.16-0.341,1.478-2.615c-0.682-2.274-6.367-19.216-6.367-19.216
			s-0.847-16.351-2.439-18.284C409.582,224.929,405.01,224.219,403.854,225.473z"/>
		<path style="fill:#92E3A9;stroke:#263238;stroke-miterlimit:10;" d="M434.252,260.028c0,0-8.062,13.974-7.256,17.736
			c0.806,3.762,7.649,37.521,7.649,37.521s-3.493-0.538-3.493,1.612s-1.53,7.172-1.53,7.172s13.353,19.163,15.503,22.925
			c2.15,3.762,2.15,3.762,2.15,3.762s4.3,4.299,10.212,4.837c5.912,0.537,14.242-2.15,15.855-6.181
			c1.612-4.031,1.612-13.167,1.612-13.167s-5.912-58.851-9.137-69.331c-3.225-10.48-4.031-16.124-7.256-19.079
			c-3.225-2.956-16.93-2.15-16.93-2.15"/>
		<path style="fill:none;stroke:#263238;stroke-miterlimit:10;" d="M459.917,338.418c0.98,1.416,1.881,2.93,2.676,4.545"/>
		<path style="fill:none;stroke:#263238;stroke-miterlimit:10;" d="M435.452,320.659c0,0,13.198,4.089,22.278,14.897"/>
		<path style="fill:none;stroke:#263238;stroke-miterlimit:10;" d="M452.861,319.005c-3.426-1.083-6.947-1.734-9.885-1.302"/>
		<path style="fill:none;stroke:#263238;stroke-miterlimit:10;" d="M466.892,325.496c0,0-4.861-3.005-10.732-5.315"/>
		<g>
			<path style="fill:#FFFFFF;stroke:#263238;stroke-miterlimit:10;" d="M324.368,305.614c0,0-14.116-0.228-23.679-3.87
				c-9.563-3.643-21.402-7.058-28.232-5.92c-6.83,1.138-10.701,4.781-13.661,10.473c-2.96,5.692,1.366,18.897,6.147,21.629
				c4.781,2.732,16.393,4.326,25.272,2.96c8.879-1.366,26.411-2.049,32.103-1.594c5.692,0.455,34.152,2.277,36.656,2.049
				c2.504-0.228,3.188-2.96,3.415-4.554c0.228-1.594,1.049-14.451,1.049-14.451s4.256-1.312,4.188-5.129
				c-0.055-3.136-3.188-4.326-5.237-4.781c-2.049-0.455-12.522-3.188-14.344-3.87c-1.822-0.683-1.822-0.683-1.822-0.683
				s7.741-6.603,9.107-8.652c1.366-2.049,3.08-6.776,1.138-8.424c-1.942-1.648-4.326,1.138-5.464,2.96
				c-1.138,1.822-4.554,3.415-6.603,4.781c-2.049,1.366-8.196,3.415-10.245,6.603C332.109,298.328,324.368,305.614,324.368,305.614z
				"/>
			<path style="fill:none;stroke:#263238;stroke-miterlimit:10;" d="M346.225,297.872c0,0-3.296-1.301-4.52-0.995"/>
		</g>
		<g>
			<path style="fill:#FFFFFF;stroke:#263238;stroke-miterlimit:10;" d="M454.408,354.623c0,0,3.327-1.109,0.74-9.243
				c-2.588-8.134-12.201-17.931-18.486-20.335c-6.285-2.403-9.058-1.294-19.041,1.294c-9.982,2.588-25.141,4.067-33.46,4.067
				s-7.764,0.924-7.764,0.924s-5.176-6.47-8.134-6.47c-2.958,0-14.049,2.958-15.159,3.328c0,0-5.731-0.555-9.982,0.555
				c-4.252,1.109-6.84,4.067-6.84,4.067s-12.386-6.655-16.452-7.21c-4.067-0.555-4.437,1.479-4.437,1.479s-8.504-2.034-7.764-0.185
				c0.739,1.849,0.739,1.849,0.739,1.849s-4.806-1.294-4.991-0.185c-0.185,1.109,5.731,4.067,12.755,7.025
				c7.025,2.958,14.974,3.143,23.662,6.1c8.688,2.958,34.199,5.361,34.199,5.361s46.215,9.798,61.374,9.798
				C450.526,356.841,454.408,354.623,454.408,354.623z"/>
			<path style="fill:none;stroke:#263238;stroke-miterlimit:10;" d="M336.283,332.809c0,0-2.958,7.949,1.294,7.579
				c4.252-0.37,10.722-4.991,13.864-5.176c3.143-0.185,9.428,2.034,9.428,2.034"/>
			<path style="fill:none;stroke:#263238;stroke-miterlimit:10;" d="M315.394,327.079c0,0,6.285,5.915,13.31,9.428
				c7.025,3.512,11.831,4.991,14.974,4.991c3.143,0,6.84-0.37,6.84-0.37"/>
			<path style="fill:none;stroke:#263238;stroke-miterlimit:10;" d="M308.369,328.742c0,0,6.84,6.285,13.31,8.134"/>
		</g>
	</g>
</g>
<g id="Character_1">
	<g>
		<path style="fill:#263238;stroke:#263238;stroke-miterlimit:10;" d="M156.293,132.325c0,0-0.707-0.177-1.898-0.412
			c-3.786-0.748-12.456-2.086-18.801-0.206c-8.342,2.472-27.496,24.716-29.041,36.147c-1.545,11.431-6.179,66.115-6.179,66.115
			s44.18,13.903,59.009,13.285c14.829-0.618,22.553-5.561,22.553-5.561s-3.398-20.082-2.472-29.35
			c0.927-9.269,2.472-41.09,2.472-41.09s8.033-9.268,8.96-16.065c0.927-6.797-16.704-21.874-24.428-23.11
			C158.744,130.841,156.293,132.325,156.293,132.325z"/>
		<path style="fill:#263238;stroke:#263238;stroke-miterlimit:10;" d="M216.116,458.849c-1.599-23.232-6.49-58.989-6.49-58.989
			s-20.778,6.628-56.424,8.061c-35.646,1.433-59.111-10.747-59.111-10.747s-3.762,12.001-6.628,24.898
			c-2.194,9.875-2.708,28.558-2.829,36.778H216.116z"/>
		<path style="fill:#92E3A9;stroke:#263238;stroke-miterlimit:10;" d="M92.836,387.858c0,0-3.762,12.539-2.149,14.688
			c1.612,2.15,32.422,13.255,63.589,12.18c31.168-1.075,54.275-6.628,56.962-9.852c2.687-3.224-1.433-14.151-1.433-14.151
			s-17.375,9.135-49.797,7.881C127.587,397.352,93.553,385.709,92.836,387.858z"/>
		<g>
			<path style="fill:#92E3A9;stroke:#263238;stroke-miterlimit:10;" d="M128.173,233.205c0,0-23.94-5.113-32.075-4.649
				c-8.135,0.465-18.129,6.973-20.919,13.016c-2.789,6.043-7.903,12.086-7.903,12.086s-39.492,22.275-38.562,27.156
				c0.93,4.881,22.757,14.681,32.984,13.984c10.227-0.697,28.124-16.27,28.124-16.27s19.059,52.529,19.524,59.037
				c0.465,6.508-19.757,48.113-18.594,52.529c1.162,4.416,20.454,11.389,51.134,13.016c30.681,1.627,44.626-0.697,57.41-4.649
				s12.551-8.832,12.319-12.784c-0.232-3.951-10.459-41.837-10.459-50.902s4.416-22.313,4.416-22.313l11.621,12.784
				c0,0-2.324,2.557-1.395,3.951c0.93,1.395,3.254,3.719,3.254,3.719s14.411-2.557,24.637,0.232
				c10.227,2.789,6.973-4.881,4.881-8.832c-2.092-3.951-2.557-9.297-5.578-10.459c-3.021-1.162-4.881-3.951-4.881-3.951
				s-18.362-45.091-22.081-51.134c-3.719-6.043-12.784-14.875-19.524-17.897c-6.74-3.022-16.502-2.557-16.502-2.557
				s-9.994,4.649-27.194,0.697C135.611,235.065,128.173,233.205,128.173,233.205z"/>
			<path style="fill:none;stroke:#263238;stroke-miterlimit:10;" d="M126.45,237.216c0,0-0.383,10.721,10.721,19.91"/>
			<path style="fill:none;stroke:#263238;stroke-miterlimit:10;" d="M174.087,324.388c-7.309,3.23-16.934,7.247-22.366,8.551"/>
			<path style="fill:none;stroke:#263238;stroke-miterlimit:10;" d="M183.884,319.921c0,0-2.051,0.973-5.178,2.396"/>
			<path style="fill:none;stroke:#263238;stroke-miterlimit:10;" d="M171.249,328.345c0,0-14.167,6.509-24.888,9.572"/>
			<path style="fill:none;stroke:#263238;stroke-miterlimit:10;" d="M199.066,268.26c-1.34-3.226-2.327-5.304-2.327-5.304"/>
			<path style="fill:none;stroke:#263238;stroke-miterlimit:10;" d="M205.572,312.464c0,0,1.395-6.276,0.697-18.594
				c-0.36-6.363-2.891-14.401-5.254-20.685"/>
			<path style="fill:none;stroke:#263238;stroke-miterlimit:10;" d="M237.545,321.06c1.518-0.066,3.079,0.033,4.654,0.355"/>
			<path style="fill:none;stroke:#263238;stroke-miterlimit:10;" d="M221.007,327.661c0,0,4.929-4.071,11.593-5.828"/>
			<path style="fill:none;stroke:#263238;stroke-miterlimit:10;" d="M240.86,314.945c0,0-9.369,0.669-14.277,5.131"/>
		</g>
		<path style="fill:#FFFFFF;stroke:#263238;stroke-miterlimit:10;" d="M137.703,200.201c0,0,1.395,21.383,0,26.264
			c-1.395,4.881-4.648,6.276-9.529,6.74c0,0,9.297,25.335,26.264,29.983c16.967,4.649,25.567-24.87,25.567-24.87
			s-9.065-1.627-11.157-5.113c-2.092-3.486-2.324-15.573-2.324-15.573L137.703,200.201z"/>
		<polygon style="fill:#263238;stroke:#263238;stroke-miterlimit:10;" points="145.217,213.688 165.696,229.048 165.427,217.172 		
			"/>
		<g>
			<path style="fill:#FFFFFF;stroke:#263238;stroke-miterlimit:10;" d="M166.625,146.894c0,0-3.836,5.867-13.538,15.795
				c-9.702,9.928-16.246,12.41-16.246,12.41s-1.354,10.605-4.513,11.959c-3.159,1.354-3.385,0.677-5.415-2.031
				c-2.031-2.708-7.22-2.933-8.574,2.031c-1.354,4.964,4.061,12.636,7.672,15.118c3.61,2.482,8.8-0.226,8.8-0.226
				s3.836,8.349,8.8,11.282c4.964,2.933,26.625,10.154,32.266,7.897c5.641-2.256,11.507-23.24,11.282-30.461
				c-0.226-7.22-1.805-11.507-2.482-16.02c-0.677-4.513,0.903-6.092-1.579-11.733C180.614,157.274,166.625,146.894,166.625,146.894z
				"/>
			<path style="fill:none;stroke:#263238;stroke-miterlimit:10;" d="M175.113,171.129c0,0-2.965,5.436-1.812,8.236
				c1.153,2.8,7.907,8.566,6.589,11.037c-1.318,2.471-6.919,3.789-6.919,3.789"/>
			<path style="fill:none;stroke:#263238;stroke-miterlimit:10;" d="M158.475,199.298c0,0,5.601,4.777,13.178,3.789"/>
			<path style="fill:none;stroke:#263238;stroke-miterlimit:10;" d="M164.405,167.011c0,0-4.283-1.483-8.401,0.659
				c-4.118,2.141-5.436,3.624-5.436,3.624"/>
			<path style="fill:none;stroke:#263238;stroke-miterlimit:10;" d="M175.771,167.505c0,0,5.107-2.636,7.907,0.329"/>
			<path style="fill:#263238;" d="M163.417,177.801c0,2.047-0.885,3.706-1.977,3.706s-1.977-1.659-1.977-3.706
				c0-2.047,0.885-3.706,1.977-3.706S163.417,175.754,163.417,177.801z"/>
			<path style="fill:#263238;" d="M183.02,177.142c0,2.047-0.885,3.706-1.977,3.706c-1.092,0-1.977-1.659-1.977-3.706
				s0.885-3.706,1.977-3.706C182.134,173.435,183.02,175.095,183.02,177.142z"/>
		</g>
		<path style="fill:#92E3A9;stroke:#263238;stroke-miterlimit:10;" d="M101.773,265.906c0,0-0.113-0.678-0.421-1.431
			c-0.402-0.982-1.136-2.089-2.384-1.976c-2.204,0.2-8.415,2.204-9.817,1.803c-1.403-0.401-3.206-2.404-6.211-2.004
			c-3.005,0.401-22.64,2.605-31.456,5.61c-8.816,3.005-21.818,7.497-25,12.682c-4.101,6.683,2.713,24.792,7.722,27.396
			c5.009,2.605,28.528-3.49,41.718-7.93c6.839-2.302,14.428-7.305,15.43-8.707c1.002-1.402,1.403-2.204,1.403-2.204
			s4.007-0.401,6.612-1.202c2.605-0.801,4.007-4.208,4.007-4.208S98.367,273.519,101.773,265.906z"/>
		<g>
			<path style="fill:#FFFFFF;stroke:#263238;stroke-miterlimit:10;" d="M101.773,265.906c0,0,36.665-6.812,39.47-6.011
				c2.805,0.801,18.433,22.841,20.436,26.848c2.003,4.007,11.42,22.24,12.823,24.844c1.402,2.605,2.805,4.608,1.803,5.61
				c-1.002,1.002-2.805,1.002-3.807-0.401c-1.002-1.402-7.614-11.22-10.018-14.426c-2.404-3.206-3.807-5.009-3.807-5.009
				l-2.004,1.603c0,0,3.607,11.02,5.009,14.426s5.209,9.016,4.007,10.018c-1.202,1.002-3.206-0.2-4.608-2.004
				s-8.215-13.424-9.216-15.027c-1.002-1.603-2.805-4.007-2.805-4.007s-3.807,2.204-5.009,2.004c-1.202-0.2-2.605,1.202-4.608,1.002
				c-2.004-0.2-3.807-5.41-4.408-8.215c-0.601-2.805,0.601-3.807,0.601-3.807l1.402-0.401c0,0-6.011-7.213-7.012-16.83
				l-26.648,7.614C103.376,283.737,97.365,274.922,101.773,265.906z"/>
			<path style="fill:none;stroke:#263238;stroke-miterlimit:10;" d="M137.036,292.954c0,0,0.2,4.608,1.603,7.013"/>
		</g>
		<g>
			<path style="fill:#92E3A9;stroke:#263238;stroke-miterlimit:10;" d="M242.825,325.011c0,0-12.823,0.2-20.437,4.207
				c-7.614,4.007-10.218,5.81-18.633,7.013c-8.415,1.202-15.428-2.605-22.24-1.803c-6.812,0.801-25.045,7.614-28.25,8.816
				c-3.206,1.202-7.814,3.406-11.22,3.607c-3.406,0.2-10.018-1.603-10.218,0.2c-0.2,1.803,8.014,4.608,19.435,6.211
				c11.42,1.603,16.029,0.2,20.036-0.801c4.007-1.002,9.216-2.404,9.216-2.404s-0.401,6.612,2.605,6.011s5.009-5.009,8.615-6.211
				c3.606-1.202,18.232,3.206,25.445,3.005c7.213-0.2,26.046-0.2,33.059-4.608c7.012-4.408,9.016-9.417,5.209-14.426
				c-3.807-5.009-9.818-9.216-9.818-9.216"/>
			<path style="fill:#FFFFFF;stroke:#263238;stroke-miterlimit:10;" d="M218.982,342.442c-1.212-4.661-3.725-7.152-6.066-8.485
				c-2.519,1.002-5.193,1.707-9.161,2.274c-8.415,1.202-15.428-2.605-22.24-1.803c-6.812,0.801-25.045,7.614-28.251,8.816
				c-3.206,1.202-7.814,3.406-11.22,3.606c-3.406,0.2-10.018-1.603-10.218,0.2c-0.2,1.803,8.014,4.608,19.435,6.211
				c11.42,1.603,16.029,0.2,20.036-0.801c4.007-1.002,9.216-2.404,9.216-2.404s-0.401,6.612,2.605,6.011s5.009-5.009,8.615-6.211
				c3.607-1.202,18.233,3.206,25.445,3.005c0.531-0.015,1.133-0.029,1.781-0.043C219.772,350.605,220.231,347.244,218.982,342.442z"
				/>
			<path style="fill:none;stroke:#263238;stroke-miterlimit:10;" d="M180.514,350.056c0,0-0.2-1.202,2.204-3.606
				c2.404-2.404,4.809-4.608,4.809-4.608"/>
			<path style="fill:none;stroke:#263238;stroke-miterlimit:10;" d="M187.927,352.059c0,0,1.803-2.805,4.608-4.007
				c2.805-1.202,6.812-3.807,5.81-7.012"/>
			<line style="fill:none;stroke:#263238;stroke-miterlimit:10;" x1="154.729" y1="346.143" x2="149.299" y2="347.747"/>
			<path style="fill:none;stroke:#263238;stroke-miterlimit:10;" d="M135.972,349.845c0,0-2.468-3.208,0.123-3.702
				c2.592-0.494,18.511,3.208,18.511,3.208l5.8-2.468"/>
			<path style="fill:none;stroke:#263238;stroke-miterlimit:10;" d="M139.04,350.457c0,0-2.805-3.206,1.202-2.805
				c4.007,0.401,17.231,3.206,17.231,3.206l11.22-2.605"/>
		</g>
		<path style="fill:none;stroke:#263238;stroke-miterlimit:10;" d="M88.499,267.207c0,0-2.231,10.931,2.677,19.631"/>
	</g>
</g>
<g id="Speaker">
	<g>
		<polygon style="fill:#92E3A9;stroke:#263238;stroke-miterlimit:10;" points="241.967,82.812 225.535,82.812 225.535,113.364 
			241.967,113.364 267.384,128.029 267.384,68.146 		"/>
		<path style="fill:#263238;" d="M295.058,97.639l8.661-8.661c1.561-1.563,1.561-4.095,0-5.657c-1.563-1.562-4.095-1.562-5.657,0
			l-8.661,8.661l-8.661-8.661c-1.563-1.562-4.095-1.562-5.657,0c-1.562,1.563-1.562,4.095,0,5.657l8.661,8.661l-8.661,8.661
			c-1.562,1.563-1.562,4.095,0,5.657c0.781,0.781,1.805,1.171,2.829,1.171c1.024,0,2.047-0.391,2.829-1.171l8.661-8.661l8.661,8.661
			c0.781,0.781,1.805,1.171,2.829,1.171c1.024,0,2.047-0.391,2.829-1.171c1.561-1.563,1.561-4.095,0-5.657L295.058,97.639z"/>
	</g>
</g>
<g id="Line">
	<g>
		<line style="fill:none;stroke:#263238;stroke-miterlimit:10;" x1="470.741" y1="458.849" x2="482.296" y2="458.849"/>
		<line style="fill:none;stroke:#263238;stroke-miterlimit:10;" x1="57.953" y1="458.849" x2="462.175" y2="458.849"/>
		<line style="fill:none;stroke:#263238;stroke-miterlimit:10;" x1="26.013" y1="458.849" x2="48.316" y2="458.849"/>
	</g>
</g>
</svg>
